# xmcd CD database file
#
# Track frame offsets:
#	150
#	35367
#	62627
#	94635
#	130717
#	166237
#	196370
#	217640
#	242432
#	269307
#	294530
#
# Disc length: 4277 seconds
#
# Revision: 0
# Processed by: cddbd v1.4PL0 Copyright (c) Steve Scherf et al.
# Submitted via: CDex 1.51
#
DISCID=8e10b30b
DTITLE=Chet Baker - Almost Blue
DYEAR=1900
DGENRE=Jazz
TTITLE0=This is Always
TTITLE1=If I should lose you
TTITLE2=Just friends
TTITLE3=You can't go home again
TTITLE4=Almost Blue
TTITLE5=Nightbird
TTITLE6=Ann, Wonderful one
TTITLE7=My funny valentine: instrumental
TTITLE8=But not for me
TTITLE9=Stella by starlight
TTITLE10=Deep in a dream
EXTD=
EXTT0=
EXTT1=
EXTT2=
EXTT3=
EXTT4=
EXTT5=
EXTT6=
EXTT7=
EXTT8=
EXTT9=
EXTT10=
PLAYORDER=
